<svg width="1000" height="494" viewBox="0 0 1000 494" fill="none" xmlns="http://www.w3.org/2000/svg">
<g clip-path="url(#clip0_4_2)">
<path d="M110.087 203.687H109.587V204.187V334.375C109.587 343.202 111.288 349.57 115.474 353.716C119.659 357.859 126.216 359.672 135.652 359.672H163.848V415.5H115.304C89.3082 415.5 70.2825 408.294 57.7519 395.247C45.2179 382.197 39.1088 363.224 39.1088 339.541V204.187V203.687H38.6088H0.5V147.859H38.6088H39.1088V147.359V74.5H109.587V147.359V147.859H110.087H167.5V203.687H110.087Z" fill="#0F0F10" stroke="black"/>
<path d="M261.517 306.037H261.017V306.537V313.323C261.017 329.323 265.058 344.329 274.305 355.344C283.565 366.374 297.99 373.338 318.614 373.338C348.739 373.338 367.581 357.741 374.505 338.882H435.319C425.757 387.888 377.881 423.5 318.614 423.5C280.56 423.5 249.29 412.305 227.538 391.661C205.789 371.02 193.5 340.881 193.5 302.882V265.816C193.5 229.108 204.371 197.787 225.286 175.648C246.197 153.512 277.2 140.5 317.576 140.5C357.426 140.5 387.392 153.899 407.398 175.384C427.41 196.875 437.5 226.502 437.5 259.029V306.037H261.517ZM373.117 256.919H373.617V256.419V249.632C373.617 232.585 369.184 217.577 359.935 206.824C350.676 196.059 336.643 189.618 317.576 189.618C297.211 189.618 283.038 196.452 273.971 207.95C264.921 219.427 261.017 235.477 261.017 253.809V256.419V256.919H261.517H373.117Z" fill="#0F0F10" stroke="black"/>
<path d="M614.227 278.639L614.031 278.924L614.229 279.209L709.043 415.5H635.353L578.907 331.606L578.492 330.989L578.077 331.606L521.647 415.5H447.957L542.755 279.209L542.953 278.924L542.756 278.639L451.619 146.5H524.284L578.077 226.241L578.492 226.855L578.906 226.241L632.733 146.5H705.364L614.227 278.639Z" fill="#0F0F10" stroke="black"/>
<path d="M824.448 203.687H823.948V204.187V334.375C823.948 343.202 825.634 349.569 829.792 353.714C833.949 357.859 840.464 359.672 849.845 359.672H877.886V415.5H829.634C803.794 415.5 784.879 408.295 772.419 395.248C759.956 382.198 753.879 363.225 753.879 339.541V204.187V203.687H753.379H715.5V147.859H753.379H753.879V147.359V74.5H823.948V147.359V147.859H824.448H881.5V203.687H824.448Z" fill="#0F0F10" stroke="black"/>
<path d="M999.5 0.5V493.5H940.5V0.5H999.5Z" fill="#0F0F10" stroke="black"/>
</g>
<defs>
<clipPath id="clip0_4_2">
<rect width="1000" height="494" fill="white"/>
</clipPath>
</defs>
</svg>
